<?xml version="1.0" encoding="UTF-8"?>
<svg xmlns="http://www.w3.org/2000/svg" id="Layer_3" data-name="Layer 3" viewBox="0 0 64 64" width="512" height="512"><path d="M48.625,15.377A25,25,0,1,0,15.377,48.625,25,25,0,1,0,48.625,15.377ZM3,26A22.992,22.992,0,0,1,45.751,14.236a24.691,24.691,0,0,0-2.9-.76A20.994,20.994,0,1,0,13.476,42.848a24.691,24.691,0,0,0,.76,2.9A23.051,23.051,0,0,1,3,26ZM25,12a1,1,0,1,1,1,1A1,1,0,0,1,25,12Zm2,2.816a3,3,0,1,0-2,0v1.838A25.192,25.192,0,0,0,19.692,21H18V19.816a3,3,0,1,0-2,0V22a1,1,0,0,0,1,1h1.014q-.727.965-1.36,2H14.816a3,3,0,1,0,0,2h.741A24.842,24.842,0,0,0,13,38c0,.649.033,1.289.081,1.926A19,19,0,1,1,39.925,13.081C39.289,13.033,38.648,13,38,13a24.842,24.842,0,0,0-11,2.557ZM16,17a1,1,0,1,1,1,1A1,1,0,0,1,16,17Zm-3,9a1,1,0,1,1-1-1A1,1,0,0,1,13,26ZM38,61A23,23,0,1,1,61,38,23.026,23.026,0,0,1,38,61Z"/><path d="M38,17A21,21,0,1,0,59,38,21.024,21.024,0,0,0,38,17Zm0,40A19,19,0,1,1,57,38,19.021,19.021,0,0,1,38,57Z"/><path d="M48.447,26.105l-10-5a1,1,0,0,0-.894,0l-10,5A1,1,0,0,0,27,27V49a1,1,0,0,0,.553.9l10,5a1,1,0,0,0,.894,0l10-5A1,1,0,0,0,49,49V37a1,1,0,0,0-.553-.9l-10-5a1,1,0,0,0-.894,0L33,33.382V29.618l5-2.5,5,2.5V31a1,1,0,0,0,.553.895l4,2A1,1,0,0,0,49,33V27A1,1,0,0,0,48.447,26.105ZM38,33.118l9,4.5V48.382l-9,4.5-9-4.5V40.618l2,1V47a1,1,0,0,0,.553.895l6,3a1,1,0,0,0,.894,0l6-3A1,1,0,0,0,45,47V39a1,1,0,0,0-.553-.9l-6-3a1,1,0,0,0-.894,0L34,36.881l-1-.5v-.763Zm-5,9.5L37.553,44.9a1,1,0,0,0,.894,0L43,42.618v3.763l-5,2.5-5-2.5ZM39.763,38,38,38.882,36.237,38,38,37.118ZM47,31.382l-2-1V29a1,1,0,0,0-.553-.895l-6-3a1,1,0,0,0-.894,0l-6,3A1,1,0,0,0,31,29v8a1,1,0,0,0,.553.895l6,3a1,1,0,0,0,.894,0L42,39.118l1,.5v.764l-5,2.5-9-4.5V27.618l9-4.5,9,4.5Z"/></svg>
