<svg width="39" height="39" viewBox="0 0 39 39" fill="none" xmlns="http://www.w3.org/2000/svg">
    <path d="M23.5625 20.4587L25.025 26.7637L19.5 23.4325L13.975 26.7637L15.4375 20.475L10.5625 16.2663L16.9975 15.7137L19.5 9.7825L22.0025 15.6975L28.4375 16.25L23.5625 20.4587ZM19.5 5.18375L30.875 10.2375V17.875C30.875 25.22 26.0325 31.9963 19.5 34.0112C12.9675 31.9963 8.125 25.22 8.125 17.875V10.2375L19.5 5.18375ZM19.5 1.625L4.875 8.125V17.875C4.875 26.8938 11.115 35.3275 19.5 37.375C27.885 35.3275 34.125 26.8938 34.125 17.875V8.125L19.5 1.625Z" fill="black"/>
</svg>